<?xml version="1.0" encoding="utf-8"?>
<!-- Generator: Adobe Illustrator 22.1.0, SVG Export Plug-In . SVG Version: 6.00 Build 0)  -->
<svg version="1.1" id="Layer_1" xmlns="http://www.w3.org/2000/svg" xmlns:xlink="http://www.w3.org/1999/xlink" x="0px" y="0px"
	 viewBox="0 0 50 45" style="enable-background:new 0 0 50 45;" xml:space="preserve">
<style type="text/css">
	.st0{fill:#881A75;}
	.st1{fill:#FFFFFF;}
</style>
<path class="st0" d="M98.7,44.9L51.3,45h0c-0.3,0-0.7-0.1-0.9-0.4c-0.2-0.2-0.4-0.5-0.4-0.9L50,17c0,0,0,0,0,0c0-0.4,0.2-0.8,0.6-1
	l7.2-4.8V6.1c0-0.7,0.6-1.2,1.3-1.2h8.2l7.1-4.7c0.4-0.3,1-0.3,1.5,0l7,4.7H91c0.7,0,1.3,0.6,1.3,1.2v5.1l7.2,4.8
	c0.3,0.2,0.4,0.4,0.5,0.7c0,0.1,0,0.2,0,0.2l0,26.7C100,44.4,99.4,44.9,98.7,44.9z M94.9,42.5L75,27.6l-20,14.9L94.9,42.5z
	 M57.7,14.2L53.5,17l4.2,2.8V14.2z M52.6,19.4l0,21.9l15.5-11.6L52.6,19.4z M75,2.7l-3.3,2.2h6.5L75,2.7z M89.7,7.4H60.3v14.2
	l9.9,6.6l4.1-3c0.5-0.3,1.1-0.3,1.6,0c0,0,0,0,0,0l4,3l9.9-6.6V7.4z M92.3,14.3v5.5l4.1-2.7L92.3,14.3z M97.4,19.3L81.9,29.7
	l15.5,11.6L97.4,19.3z M65.1,20c0-0.7,0.6-1.2,1.3-1.2h17.3c0.7,0,1.3,0.6,1.3,1.2s-0.6,1.2-1.3,1.2H66.3
	C65.6,21.2,65.1,20.6,65.1,20z M83.7,14.8H66.3c-0.7,0-1.3-0.6-1.3-1.2c0-0.7,0.6-1.2,1.3-1.2h17.3c0.7,0,1.3,0.6,1.3,1.2
	C84.9,14.2,84.4,14.8,83.7,14.8z"/>
<g>
	<g>
		<g>
			<g>
				<g>
					<g>
						<path class="st0" d="M23.4,40.6c-10.9,0-19.8-8.9-19.8-19.8C3.6,9.9,12.5,1,23.4,1c10.9,0,19.8,8.9,19.8,19.8
							C43.2,31.8,34.3,40.6,23.4,40.6z M23.4,2.2c-10.3,0-18.6,8.4-18.6,18.6c0,10.3,8.4,18.6,18.6,18.6c10.3,0,18.6-8.4,18.6-18.6
							C42,10.6,33.7,2.2,23.4,2.2z"/>
					</g>
				</g>
			</g>
		</g>
		<g>
			<path class="st0" d="M23.4,40.7c-4.3,0-7.6-8.7-7.6-19.8C15.8,9.7,19.1,1,23.4,1S31,9.7,31,20.8C31,32,27.7,40.7,23.4,40.7z
				 M23.4,2.2c-3.1,0-6.5,7.5-6.5,18.7c0,11.2,3.3,18.7,6.5,18.7c3.1,0,6.5-7.5,6.5-18.7C29.9,9.7,26.5,2.2,23.4,2.2z"/>
		</g>
		<g>
			<rect x="22.8" y="1.6" class="st0" width="1.2" height="38.5"/>
		</g>
		<g>
			<path class="st0" d="M23.4,31.5c-10.9,0-19.8-4.8-19.8-10.7c0-5.9,8.9-10.7,19.8-10.7c10.9,0,19.8,4.8,19.8,10.7
				C43.2,26.7,34.3,31.5,23.4,31.5z M23.4,11.4c-10.3,0-18.7,4.3-18.7,9.5c0,5.2,8.4,9.5,18.7,9.5c10.3,0,18.7-4.3,18.7-9.5
				C42,15.6,33.7,11.4,23.4,11.4z"/>
		</g>
		<g>
			<rect x="4.1" y="20.2" class="st0" width="38.5" height="1.2"/>
		</g>
		<g>
			<path class="st0" d="M23.4,40.7c-8.3,0-15.1-8.9-15.1-19.8C8.3,9.9,15.1,1,23.4,1c8.3,0,15.1,8.9,15.1,19.8
				C38.5,31.8,31.7,40.7,23.4,40.7z M23.4,2.2c-7.7,0-13.9,8.4-13.9,18.7c0,10.3,6.2,18.7,13.9,18.7c7.7,0,13.9-8.4,13.9-18.7
				C37.3,10.5,31.1,2.2,23.4,2.2z"/>
		</g>
	</g>
	<g>
		<g>
			<g>
				<g>
					<path class="st1" d="M26.3,33.4c-1.3-1.4-1.6-1.6-1.7-1.6c0,0,0,0-0.1-0.1c-0.2-0.2-0.5-0.2-0.6,0l-6.6,6.7
						c-0.2,0.2-0.2,0.5,0,0.6c0,0,2,2.4,4,3.6c0.3,0.2,0.5,0.3,0.8,0.4c2.3,1.1,4.7,0.9,6.9,0c3-1.2,8.9-7.5,8.9-7.5s6.2-6,7.4-9
						c0.9-2.4,1-5.2-0.6-7.6c-1.3-2-3.7-4-3.7-4c-0.2-0.2-0.5-0.2-0.6,0l-6.6,6.8c-0.2,0.2-0.2,0.5,0,0.6c0,0,0.1,0,0.1,0.1
						c0,0,0.3,0.3,1.7,1.7c1.8,1.7,2.9,1.4,2.9,1.4c-0.3,1.1-5,5.6-5,5.6s-4.5,4.7-5.6,5.1C27.7,36.3,27.9,35.1,26.3,33.4z"/>
					<path class="st0" d="M25.4,44.5c-1.3,0-2.5-0.3-3.6-0.8c-0.3-0.1-0.5-0.3-0.8-0.4c-2.1-1.3-4.1-3.7-4.2-3.8
						c-0.2-0.2-0.3-0.4-0.3-0.7c0-0.3,0.1-0.5,0.3-0.7l6.6-6.7c0.4-0.4,1.1-0.4,1.5,0l0.1,0.1c0.3,0.3,0.9,0.8,1.7,1.6
						c0.9,0.9,1.3,1.7,1.5,2.3c1-0.8,3-2.8,4.7-4.5c1.7-1.7,3.6-3.7,4.4-4.8c-0.6-0.2-1.4-0.6-2.3-1.5c-1.1-1-1.5-1.5-1.6-1.6
						c0,0-0.1-0.1-0.1-0.1c-0.4-0.4-0.4-1.1,0-1.5l6.6-6.8c0.4-0.4,1.1-0.4,1.5,0c0.1,0,2.5,2,3.8,4.1c1.5,2.4,1.8,5.3,0.6,8.1
						c-1.2,3.1-7.2,9-7.5,9.2c-0.2,0.2-6,6.4-9.1,7.6C27.9,44.3,26.6,44.5,25.4,44.5z M17.8,38.8c0.4,0.5,2.1,2.4,3.9,3.5
						c0.2,0.2,0.5,0.3,0.7,0.4c1.9,0.9,4.2,0.9,6.4,0c2.9-1.2,8.6-7.3,8.7-7.4c0.1-0.1,6.1-5.9,7.2-8.8c1-2.5,0.8-5-0.5-7.1
						c-1.1-1.7-3.1-3.5-3.5-3.8l-6.4,6.5c0,0,0,0,0,0c0,0,0.3,0.4,1.6,1.6c1.2,1.2,2.1,1.3,2.3,1.3c0,0,0.1,0,0.1,0
						c0.2,0,0.4,0,0.5,0.2c0.1,0.2,0.2,0.4,0.1,0.6c-0.3,1.2-4,4.8-5.1,5.9c-1.1,1.1-4.6,4.9-5.8,5.2c-0.2,0.1-0.4,0-0.6-0.1
						c-0.2-0.1-0.2-0.3-0.2-0.5l0,0c0,0,0.1-1-1.3-2.4c-0.5-0.5-1.3-1.3-1.6-1.6c0,0,0,0,0,0L17.8,38.8z"/>
				</g>
			</g>
		</g>
		<g>
			<path class="st0" d="M35,24.4c-0.1,0-0.3-0.1-0.4-0.2c-0.2-0.2-0.2-0.6,0-0.8l7.2-7.5c0.2-0.2,0.6-0.2,0.8,0
				c0.2,0.2,0.2,0.6,0,0.8l-7.2,7.5C35.3,24.4,35.2,24.4,35,24.4z"/>
		</g>
		<g>
			<path class="st0" d="M18.8,41.3c-0.1,0-0.3-0.1-0.4-0.2c-0.2-0.2-0.2-0.6,0-0.8l7.2-7.5c0.2-0.2,0.6-0.2,0.8,0
				c0.2,0.2,0.2,0.6,0,0.8l-7.2,7.5C19.1,41.3,18.9,41.3,18.8,41.3z"/>
		</g>
	</g>
</g>
</svg>
