<svg 
 xmlns="http://www.w3.org/2000/svg"
 xmlns:xlink="http://www.w3.org/1999/xlink"
 width="50px" height="45px">
<path fill-rule="evenodd"  fill="rgb(251, 36, 117)"
 d="M48.720,44.937 L1.320,45.000 C1.320,45.000 1.319,45.000 1.319,45.000 C0.979,45.000 0.654,44.870 0.414,44.640 C0.174,44.409 0.039,44.095 0.038,43.768 L-0.000,17.027 C-0.000,17.020 0.002,17.013 0.002,17.006 C0.008,16.621 0.199,16.244 0.553,16.009 L7.745,11.220 L7.745,6.142 C7.745,5.461 8.319,4.909 9.026,4.909 L17.224,4.909 L24.275,0.214 C24.714,-0.079 25.296,-0.077 25.734,0.216 L32.740,4.909 L40.974,4.909 C41.681,4.909 42.254,5.461 42.254,6.142 L42.254,11.280 L49.411,16.074 C49.667,16.245 49.838,16.490 49.915,16.759 C49.944,16.822 49.961,16.931 49.961,17.003 L49.999,43.702 C50.000,44.383 49.427,44.936 48.720,44.937 ZM44.900,42.475 L25.019,27.618 L5.066,42.528 L44.900,42.475 ZM7.745,14.219 L3.532,17.024 L7.745,19.830 L7.745,14.219 ZM2.564,19.380 L2.595,41.252 L18.059,29.697 L2.564,19.380 ZM25.001,2.730 L21.729,4.909 L28.254,4.909 L25.001,2.730 ZM39.693,7.376 L10.306,7.376 L10.306,21.535 L20.182,28.110 L24.234,25.082 C24.701,24.734 25.336,24.746 25.786,25.070 C25.792,25.075 25.797,25.078 25.804,25.082 L29.826,28.089 L39.693,21.480 L39.693,7.376 ZM42.254,14.285 L42.254,19.765 L46.345,17.025 L42.254,14.285 ZM47.403,19.321 L31.947,29.673 L47.435,41.247 L47.403,19.321 ZM15.051,19.958 C15.051,19.277 15.624,18.724 16.331,18.724 L33.668,18.724 C34.375,18.724 34.949,19.277 34.949,19.958 C34.949,20.639 34.375,21.192 33.668,21.192 L16.331,21.192 C15.624,21.192 15.051,20.639 15.051,19.958 ZM33.668,14.777 L16.331,14.777 C15.624,14.777 15.051,14.225 15.051,13.544 C15.051,12.862 15.624,12.310 16.331,12.310 L33.668,12.310 C34.375,12.310 34.949,12.862 34.949,13.544 C34.949,14.225 34.375,14.777 33.668,14.777 Z"/>
</svg>